<svg width="70" height="70" viewBox="0 0 70 70" fill="none" xmlns="http://www.w3.org/2000/svg">
<path d="M64.5296 2.4776C58.3035 0.0426716 51.0963 -0.237011 43.7869 1.47797C43.5948 1.5233 43.4143 1.59476 43.2414 1.68235C48.1297 4.9717 52.7744 8.80043 57.1172 13.1432C60.8407 16.8667 64.1938 20.8268 67.1566 24.9759C67.1558 24.9798 67.155 24.9836 67.1543 24.9875C67.155 24.9836 67.1573 24.9798 67.1581 24.9759C68.641 16.8459 67.7982 8.96563 64.5296 2.4776Z" fill="white"/>
<path d="M12.5554 56.5593C8.92724 52.9311 5.65326 49.0755 2.74579 45.0416C2.74579 45.0401 2.74656 45.0393 2.74656 45.0378C2.74656 45.0393 2.74656 45.0401 2.74579 45.0416C1.28821 53.1378 2.13571 60.9812 5.39202 67.4439C11.8109 69.9549 19.2717 70.1739 26.8131 68.2783C26.83 68.2737 26.8446 68.2637 26.8615 68.2591C26.8454 68.263 26.8285 68.2691 26.8116 68.273C21.7857 64.9298 17.0135 61.0158 12.5554 56.5593Z" fill="white"/>
<path d="M64.6033 33.9212C61.1742 28.3129 56.9881 23.0159 52.1167 18.1445C46.7405 12.7683 40.8772 8.25107 34.6542 4.65899C34.6727 4.65054 34.6919 4.64285 34.7103 4.6344C34.6919 4.64208 34.6696 4.64439 34.6511 4.65284C28.1762 7.6479 21.9117 12.1843 16.4864 18.1437C11.4336 23.6943 7.67943 29.8535 5.26908 36.1072C5.2614 36.1264 5.2614 36.1494 5.25449 36.1694C5.26217 36.1494 5.26832 36.1294 5.276 36.1102C8.666 41.5956 12.7813 46.782 17.5567 51.5581C23.0289 57.0304 29.0014 61.609 35.3434 65.228C35.3265 65.2357 35.3096 65.2426 35.292 65.2503C35.3089 65.2426 35.3288 65.2418 35.3457 65.2341C41.7938 62.2383 48.0306 57.715 53.4352 51.7779C58.458 46.2595 62.1984 40.1403 64.6103 33.9243C64.6179 33.9035 64.6187 33.8797 64.6264 33.859C64.6179 33.8797 64.611 33.9004 64.6033 33.9212ZM36.3185 21.0742C36.9593 21.9847 37.5348 22.9667 37.8975 24.1822C36.6527 23.9348 35.6216 23.4538 34.655 22.9014C33.975 22.5034 33.3511 22.0447 32.7518 21.5591C31.2081 23.3186 29.6553 25.0597 28.0955 26.7923C28.3483 27.092 28.6026 27.3894 28.8347 27.7121C29.4755 28.6226 30.051 29.6045 30.4136 30.8201C29.1689 30.5727 28.1378 30.0917 27.1712 29.5392C26.8308 29.3402 26.5135 29.1159 26.1938 28.8946C24.6271 30.6195 23.0497 32.3368 21.4523 34.0472C22.0124 34.6142 22.5456 35.2097 23.0205 35.8705C23.6613 36.781 24.2368 37.763 24.5995 38.9785C23.3547 38.7311 22.3236 38.2501 21.357 37.6977C20.6378 37.2766 19.9793 36.7887 19.3493 36.2693C17.8748 37.8145 16.3734 39.3512 14.7652 40.838C15.6296 38.7565 16.7 36.7933 17.8763 34.9001C17.4022 34.3991 16.9481 33.8766 16.5378 33.3057C15.8978 32.3945 15.3215 31.4133 14.9558 30.2008C16.1975 30.4505 17.2286 30.933 18.1952 31.4847C18.6631 31.759 19.1103 32.0556 19.5406 32.3722C20.8691 30.4643 22.3005 28.631 23.8211 26.8753C23.2986 26.3352 22.7984 25.7704 22.3505 25.1481C21.7104 24.2368 21.1342 23.2556 20.7684 22.0431C22.0101 22.2928 23.0412 22.7754 24.0078 23.327C24.6671 23.7128 25.2741 24.1561 25.8588 24.624C27.4516 22.9383 29.1282 21.3316 30.8893 19.8187C30.5174 19.4046 30.1647 18.9704 29.8343 18.511C29.1943 17.5997 28.618 16.6185 28.2523 15.406C29.4939 15.6557 30.5251 16.1383 31.4917 16.69C32.111 17.0519 32.6834 17.4652 33.2366 17.9001C35.0299 16.5132 36.9055 15.2278 38.9217 14.1375C37.5755 15.9201 36.1664 17.5989 34.7472 19.2532C35.3104 19.8179 35.8436 20.4142 36.3185 21.0742Z" fill="white"/>
</svg>
