<svg width="36" height="36" viewBox="0 0 36 36" fill="none" xmlns="http://www.w3.org/2000/svg">
<path d="M13.739 35.7619C13.4747 35.7619 13.2103 35.7097 12.9586 35.6058L9.06827 33.9939C8.56484 33.7857 8.17245 33.3937 7.96381 32.8895C7.75516 32.3861 7.75516 31.8309 7.96381 31.3274C8.44432 30.1673 7.99344 29.1312 7.41098 28.5487C6.82852 27.9658 5.79321 27.5154 4.63185 27.9959C4.12881 28.2049 3.57401 28.2045 3.07019 27.9963C2.56637 27.7876 2.17398 27.3956 1.96573 26.8918L0.354282 23.0019C-0.0760436 21.9626 0.419087 20.7665 1.45835 20.3354C2.61932 19.8549 3.03265 18.8037 3.03265 17.9798C3.03265 17.1563 2.61932 16.1048 1.45874 15.6239C0.955314 15.4153 0.562924 15.0233 0.354282 14.5195C0.145639 14.016 0.145639 13.4612 0.354282 12.9578L1.96573 9.06789C2.39645 8.02823 3.59377 7.5335 4.63185 7.96343C5.79203 8.44394 6.82813 7.99306 7.41098 7.4106C7.99344 6.82814 8.44471 5.79244 7.96381 4.63186C7.53308 3.59221 8.02861 2.39647 9.06827 1.96575L12.9582 0.354694C13.4616 0.146051 14.0164 0.146051 14.5202 0.354694C15.0241 0.563336 15.4165 0.955726 15.6247 1.45955C16.1052 2.61973 17.1567 3.03306 17.9806 3.03306C18.8045 3.03306 19.8556 2.61973 20.3365 1.45916C20.7673 0.419499 21.9626 -0.0760268 23.0031 0.354694L26.8934 1.96575C27.3968 2.17439 27.7892 2.56638 27.9978 3.07021C28.2061 3.57364 28.2061 4.12883 27.9974 4.63226C27.5165 5.79244 27.9682 6.82814 28.5503 7.4106C29.1331 7.99306 30.1692 8.44394 31.329 7.96343C31.8336 7.75478 32.388 7.75518 32.8911 7.96343C33.3949 8.17207 33.7873 8.56446 33.9959 9.06828L35.607 12.9578C36.0373 13.9975 35.5418 15.1936 34.5025 15.6239C33.3419 16.1048 32.9286 17.1563 32.9286 17.9798C32.9286 18.8037 33.3419 19.8549 34.5025 20.3358C35.5414 20.7669 36.0373 21.9626 35.6074 23.0019L33.9955 26.8922C33.7873 27.3952 33.3949 27.7876 32.8911 27.9967C32.388 28.2053 31.8324 28.2053 31.3286 27.9963C30.1692 27.5154 29.1327 27.967 28.5503 28.5491C27.9678 29.1319 27.5169 30.1677 27.9974 31.3278C28.2061 31.8313 28.2061 32.3861 27.9978 32.8899C27.7892 33.3937 27.3968 33.7857 26.893 33.9947L23.0031 35.6058C21.9638 36.0365 20.7677 35.5402 20.3365 34.5017C19.8556 33.3408 18.8045 32.927 17.9806 32.927C17.1571 32.927 16.1052 33.3408 15.6247 34.5013C15.4165 35.0044 15.0241 35.3968 14.5206 35.6058C14.2681 35.7097 14.0034 35.7619 13.739 35.7619ZM10.2707 31.9261L13.5699 33.2929C14.4017 31.5961 16.0633 30.5561 17.9802 30.5561C19.8975 30.5561 21.5588 31.5965 22.3902 33.2929L25.6889 31.9261C25.0776 30.1384 25.517 28.2282 26.8728 26.8728C28.2286 25.5171 30.1388 25.0772 31.9265 25.689L33.2933 22.3902C31.5965 21.5588 30.5565 19.8971 30.5565 17.9802C30.5565 16.0629 31.5965 14.4013 33.2933 13.5695L31.9265 10.2703C30.1392 10.8824 28.2282 10.4422 26.8728 9.08725C25.5166 7.73147 25.0776 5.82128 25.6889 4.0336L22.3902 2.66715C21.5592 4.36355 19.8975 5.4036 17.9802 5.4036C16.0629 5.4036 14.4013 4.36355 13.5695 2.66715L10.2703 4.0336C10.882 5.82128 10.4426 7.73147 9.08684 9.08725C7.73106 10.443 5.82127 10.8828 4.03319 10.2703L2.66674 13.5695C4.36354 14.4013 5.40359 16.0629 5.40359 17.9802C5.40359 19.8975 4.36354 21.5588 2.66674 22.3902L4.03319 25.689C5.82127 25.0776 7.73145 25.5171 9.08684 26.8724C10.443 28.2282 10.8824 30.1384 10.2707 31.9261ZM17.9802 26.1916C13.4525 26.1916 9.76848 22.5079 9.76848 17.9798C9.76848 13.4518 13.4525 9.76811 17.9802 9.76811C22.5079 9.76811 26.1924 13.4518 26.1924 17.9798C26.1924 22.5079 22.5083 26.1916 17.9802 26.1916ZM17.9802 12.1386C14.7597 12.1386 12.1394 14.7593 12.1394 17.9798C12.1394 21.2008 14.7597 23.821 17.9802 23.821C21.2011 23.821 23.8214 21.2008 23.8214 17.9798C23.8214 14.7593 21.2015 12.1386 17.9802 12.1386Z" fill="white"/>
</svg>
