<svg width="36" height="32" viewBox="0 0 36 32" fill="none" xmlns="http://www.w3.org/2000/svg">
<path d="M27.8121 31.4166H8.10923C7.67297 31.4166 7.31891 31.0626 7.31891 30.6263V11.0894L4.7421 12.2338C4.37539 12.397 3.94507 12.2587 3.74077 11.9133L0.307656 6.10212C0.0883441 5.73067 0.207286 5.25214 0.575177 5.0265L7.69589 0.659631C7.81997 0.583366 7.96302 0.54306 8.10883 0.54306H12.1955C12.4757 0.54306 12.7353 0.691639 12.8772 0.933475C14.1413 3.08787 15.8567 4.85501 17.9794 6.19182C20.1022 4.85501 21.8172 3.08826 23.0817 0.933475C23.2232 0.691639 23.4832 0.54306 23.7633 0.54306H27.8117C27.9567 0.54306 28.0994 0.582971 28.2231 0.658446L35.3825 5.02532C35.7516 5.25016 35.8713 5.72988 35.6516 6.10212L32.2189 11.9137C32.0146 12.259 31.5835 12.3962 31.2176 12.2342L28.6024 11.0712V30.6267C28.6024 31.063 28.2484 31.4166 27.8121 31.4166ZM8.89954 29.836H27.0218V9.85413C27.0218 9.58661 27.1573 9.33726 27.3814 9.19145C27.6062 9.04564 27.8892 9.0239 28.133 9.13218L31.2164 10.5034L33.8948 5.96895L27.59 2.12369H24.2091C22.7506 4.46775 20.7918 6.37517 18.3813 7.79773C18.1335 7.94394 17.8257 7.94394 17.578 7.79773C15.1671 6.37478 13.2083 4.46736 11.7502 2.12369H8.33209L2.06413 5.96737L4.74368 10.5034L7.78836 9.15114C8.03296 9.04287 8.3155 9.065 8.53995 9.21081C8.76439 9.35663 8.89954 9.60597 8.89954 9.87349V29.836Z" fill="white"/>
</svg>
