<svg width="36" height="36" viewBox="0 0 36 36" fill="none" xmlns="http://www.w3.org/2000/svg">
<path d="M17.9798 19.7655C14.945 19.7655 12.4619 17.2824 12.4619 14.2476V12.2686C12.4619 9.23383 14.945 6.75067 17.9798 6.75067C21.0146 6.75067 23.4978 9.23383 23.4978 12.2686V14.2476C23.4978 17.2828 21.0146 19.7655 17.9798 19.7655Z" fill="white"/>
<path d="M21.0869 20.5238C20.1536 21.0071 19.0985 21.2853 17.9798 21.2853C16.8611 21.2853 15.8061 21.0071 14.8727 20.5238C10.7011 21.1466 7.47421 24.7666 7.47421 29.1043V34.8119C7.47421 35.3343 7.90177 35.7615 8.42377 35.7615H27.5351C28.0575 35.7615 28.4847 35.3339 28.4847 34.8119V29.1043C28.4855 24.7666 25.2586 21.1466 21.0869 20.5238Z" fill="white"/>
<path d="M28.3633 13.9706C27.43 14.4539 26.3749 14.732 25.2562 14.732C25.2546 14.732 25.2535 14.732 25.2519 14.732C25.1357 16.4755 24.4086 18.0518 23.2781 19.2487C27.3699 20.7033 30.2636 24.6422 30.2636 29.1043V29.2082H34.8123C35.3347 29.2082 35.7622 28.7806 35.7622 28.2582V22.551C35.7619 18.213 32.535 14.593 28.3633 13.9706Z" fill="white"/>
<path d="M25.2562 0.197784C22.3945 0.197784 20.0255 2.40631 19.7643 5.20323C22.9256 6.00263 25.2756 8.86277 25.2756 12.269V13.2115C28.3013 13.2008 30.7738 10.7228 30.7738 7.69469V5.71575C30.7742 2.68095 28.291 0.197784 25.2562 0.197784Z" fill="white"/>
<path d="M5.6964 29.1043C5.6964 24.6422 8.58973 20.7029 12.6816 19.2487C11.551 18.0518 10.8236 16.4751 10.7078 14.732C10.7062 14.732 10.705 14.732 10.7034 14.732C9.58474 14.732 8.53006 14.4539 7.59631 13.9706C3.42465 14.593 0.1978 18.213 0.1978 22.551V28.2586C0.1978 28.781 0.625359 29.2086 1.14776 29.2086H5.6964V29.1043Z" fill="white"/>
<path d="M10.6837 13.2111V12.2686C10.6837 8.86238 13.0333 6.00223 16.1949 5.20283C15.9341 2.40631 13.5651 0.197784 10.7034 0.197784C7.66862 0.197784 5.18546 2.68095 5.18546 5.71575V7.69469C5.18546 10.7228 7.65795 13.2004 10.6837 13.2111Z" fill="white"/>
</svg>
